<svg xmlns="http://www.w3.org/2000/svg" xmlns:xlink="http://www.w3.org/1999/xlink" width="500" zoomAndPan="magnify" viewBox="0 0 375 374.999991" height="500" preserveAspectRatio="xMidYMid meet" version="1.0"><defs><g/><clipPath id="cff0c40aac"><path d="M 22.480469 160.042969 L 77.230469 160.042969 L 77.230469 214.792969 L 22.480469 214.792969 Z M 22.480469 160.042969 " clip-rule="nonzero"/></clipPath><clipPath id="9e3507f354"><path d="M 77.226562 187.421875 C 77.226562 188.320312 77.183594 189.214844 77.09375 190.105469 C 77.007812 191 76.875 191.882812 76.699219 192.761719 C 76.527344 193.644531 76.308594 194.511719 76.046875 195.371094 C 75.789062 196.226562 75.484375 197.070312 75.144531 197.898438 C 74.800781 198.726562 74.417969 199.535156 73.996094 200.328125 C 73.570312 201.117188 73.113281 201.886719 72.613281 202.632812 C 72.117188 203.378906 71.582031 204.097656 71.011719 204.789062 C 70.445312 205.484375 69.84375 206.144531 69.207031 206.78125 C 68.574219 207.414062 67.910156 208.015625 67.21875 208.585938 C 66.523438 209.152344 65.804688 209.6875 65.0625 210.183594 C 64.316406 210.683594 63.546875 211.144531 62.757812 211.566406 C 61.964844 211.988281 61.15625 212.371094 60.328125 212.714844 C 59.5 213.058594 58.65625 213.359375 57.796875 213.621094 C 56.941406 213.878906 56.070312 214.097656 55.191406 214.273438 C 54.3125 214.445312 53.425781 214.578125 52.535156 214.667969 C 51.644531 214.753906 50.75 214.796875 49.851562 214.796875 C 48.957031 214.796875 48.0625 214.753906 47.167969 214.667969 C 46.277344 214.578125 45.390625 214.445312 44.511719 214.273438 C 43.632812 214.097656 42.761719 213.878906 41.90625 213.621094 C 41.046875 213.359375 40.203125 213.058594 39.375 212.714844 C 38.546875 212.371094 37.738281 211.988281 36.949219 211.566406 C 36.15625 211.144531 35.386719 210.683594 34.644531 210.183594 C 33.898438 209.6875 33.179688 209.152344 32.484375 208.585938 C 31.792969 208.015625 31.128906 207.414062 30.496094 206.78125 C 29.859375 206.144531 29.257812 205.484375 28.691406 204.789062 C 28.121094 204.097656 27.589844 203.378906 27.089844 202.632812 C 26.59375 201.886719 26.132812 201.117188 25.710938 200.328125 C 25.285156 199.535156 24.902344 198.726562 24.5625 197.898438 C 24.21875 197.070312 23.914062 196.226562 23.65625 195.371094 C 23.394531 194.511719 23.179688 193.644531 23.003906 192.761719 C 22.828125 191.882812 22.695312 191 22.609375 190.105469 C 22.519531 189.214844 22.476562 188.320312 22.476562 187.421875 C 22.476562 186.527344 22.519531 185.632812 22.609375 184.738281 C 22.695312 183.847656 22.828125 182.960938 23.003906 182.082031 C 23.179688 181.203125 23.394531 180.335938 23.65625 179.476562 C 23.914062 178.617188 24.21875 177.773438 24.5625 176.945312 C 24.902344 176.117188 25.285156 175.308594 25.710938 174.519531 C 26.132812 173.726562 26.59375 172.960938 27.089844 172.214844 C 27.589844 171.46875 28.121094 170.75 28.691406 170.054688 C 29.257812 169.363281 29.859375 168.699219 30.496094 168.066406 C 31.128906 167.433594 31.792969 166.832031 32.484375 166.261719 C 33.179688 165.691406 33.898438 165.160156 34.644531 164.660156 C 35.386719 164.164062 36.15625 163.703125 36.949219 163.28125 C 37.738281 162.859375 38.546875 162.476562 39.375 162.132812 C 40.203125 161.789062 41.046875 161.488281 41.90625 161.226562 C 42.761719 160.964844 43.632812 160.75 44.511719 160.574219 C 45.390625 160.398438 46.277344 160.269531 47.167969 160.179688 C 48.0625 160.09375 48.957031 160.046875 49.851562 160.046875 C 50.75 160.046875 51.644531 160.09375 52.535156 160.179688 C 53.425781 160.269531 54.3125 160.398438 55.191406 160.574219 C 56.070312 160.75 56.941406 160.964844 57.796875 161.226562 C 58.65625 161.488281 59.5 161.789062 60.328125 162.132812 C 61.15625 162.476562 61.964844 162.859375 62.757812 163.28125 C 63.546875 163.703125 64.316406 164.164062 65.0625 164.660156 C 65.804688 165.160156 66.523438 165.691406 67.21875 166.261719 C 67.910156 166.832031 68.574219 167.433594 69.207031 168.066406 C 69.84375 168.699219 70.445312 169.363281 71.011719 170.054688 C 71.582031 170.75 72.117188 171.46875 72.613281 172.214844 C 73.113281 172.960938 73.570312 173.726562 73.996094 174.519531 C 74.417969 175.308594 74.800781 176.117188 75.144531 176.945312 C 75.484375 177.773438 75.789062 178.617188 76.046875 179.476562 C 76.308594 180.335938 76.527344 181.203125 76.699219 182.082031 C 76.875 182.960938 77.007812 183.847656 77.09375 184.738281 C 77.183594 185.632812 77.226562 186.527344 77.226562 187.421875 Z M 77.226562 187.421875 " clip-rule="nonzero"/></clipPath><linearGradient x1="1.279971" gradientTransform="matrix(0.111735, 0, 0, 0.111735, 22.33609, 159.853576)" y1="1.75998" x2="491.23997" gradientUnits="userSpaceOnUse" y2="491.719945" id="37ef3efbde"><stop stop-opacity="1" stop-color="rgb(90.99884%, 23.098755%, 54.899597%)" offset="0"/><stop stop-opacity="1" stop-color="rgb(90.99884%, 23.098755%, 54.899597%)" offset="0.125"/><stop stop-opacity="1" stop-color="rgb(90.986633%, 23.092651%, 54.88739%)" offset="0.140625"/><stop stop-opacity="1" stop-color="rgb(90.823364%, 23.010254%, 54.742432%)" offset="0.148438"/><stop stop-opacity="1" stop-color="rgb(90.519714%, 22.857666%, 54.475403%)" offset="0.15625"/><stop stop-opacity="1" stop-color="rgb(90.21759%, 22.703552%, 54.206848%)" offset="0.164062"/><stop stop-opacity="1" stop-color="rgb(89.91394%, 22.550964%, 53.939819%)" offset="0.171875"/><stop stop-opacity="1" stop-color="rgb(89.611816%, 22.398376%, 53.671265%)" offset="0.179687"/><stop stop-opacity="1" stop-color="rgb(89.309692%, 22.245789%, 53.40271%)" offset="0.1875"/><stop stop-opacity="1" stop-color="rgb(89.006042%, 22.091675%, 53.135681%)" offset="0.195312"/><stop stop-opacity="1" stop-color="rgb(88.703918%, 21.939087%, 52.867126%)" offset="0.203125"/><stop stop-opacity="1" stop-color="rgb(88.401794%, 21.786499%, 52.598572%)" offset="0.210937"/><stop stop-opacity="1" stop-color="rgb(88.098145%, 21.632385%, 52.331543%)" offset="0.21875"/><stop stop-opacity="1" stop-color="rgb(87.796021%, 21.479797%, 52.062988%)" offset="0.226562"/><stop stop-opacity="1" stop-color="rgb(87.492371%, 21.327209%, 51.794434%)" offset="0.234375"/><stop stop-opacity="1" stop-color="rgb(87.190247%, 21.174622%, 51.527405%)" offset="0.242187"/><stop stop-opacity="1" stop-color="rgb(86.888123%, 21.020508%, 51.25885%)" offset="0.25"/><stop stop-opacity="1" stop-color="rgb(86.584473%, 20.86792%, 50.990295%)" offset="0.257812"/><stop stop-opacity="1" stop-color="rgb(86.282349%, 20.715332%, 50.723267%)" offset="0.265625"/><stop stop-opacity="1" stop-color="rgb(85.978699%, 20.562744%, 50.454712%)" offset="0.273438"/><stop stop-opacity="1" stop-color="rgb(85.676575%, 20.40863%, 50.187683%)" offset="0.28125"/><stop stop-opacity="1" stop-color="rgb(85.374451%, 20.256042%, 49.919128%)" offset="0.289062"/><stop stop-opacity="1" stop-color="rgb(85.070801%, 20.103455%, 49.650574%)" offset="0.296875"/><stop stop-opacity="1" stop-color="rgb(84.768677%, 19.950867%, 49.383545%)" offset="0.304688"/><stop stop-opacity="1" stop-color="rgb(84.465027%, 19.796753%, 49.11499%)" offset="0.3125"/><stop stop-opacity="1" stop-color="rgb(84.162903%, 19.644165%, 48.846436%)" offset="0.320312"/><stop stop-opacity="1" stop-color="rgb(83.860779%, 19.491577%, 48.579407%)" offset="0.328125"/><stop stop-opacity="1" stop-color="rgb(83.557129%, 19.338989%, 48.310852%)" offset="0.335937"/><stop stop-opacity="1" stop-color="rgb(83.255005%, 19.184875%, 48.042297%)" offset="0.34375"/><stop stop-opacity="1" stop-color="rgb(82.951355%, 19.032288%, 47.775269%)" offset="0.351562"/><stop stop-opacity="1" stop-color="rgb(82.649231%, 18.8797%, 47.506714%)" offset="0.359375"/><stop stop-opacity="1" stop-color="rgb(82.347107%, 18.727112%, 47.239685%)" offset="0.367188"/><stop stop-opacity="1" stop-color="rgb(82.043457%, 18.572998%, 46.97113%)" offset="0.375"/><stop stop-opacity="1" stop-color="rgb(81.741333%, 18.42041%, 46.702576%)" offset="0.382812"/><stop stop-opacity="1" stop-color="rgb(81.437683%, 18.267822%, 46.435547%)" offset="0.390625"/><stop stop-opacity="1" stop-color="rgb(81.135559%, 18.113708%, 46.166992%)" offset="0.398438"/><stop stop-opacity="1" stop-color="rgb(80.833435%, 17.961121%, 45.898438%)" offset="0.40625"/><stop stop-opacity="1" stop-color="rgb(80.529785%, 17.808533%, 45.631409%)" offset="0.414062"/><stop stop-opacity="1" stop-color="rgb(80.227661%, 17.655945%, 45.362854%)" offset="0.421875"/><stop stop-opacity="1" stop-color="rgb(79.925537%, 17.501831%, 45.094299%)" offset="0.429687"/><stop stop-opacity="1" stop-color="rgb(79.621887%, 17.349243%, 44.827271%)" offset="0.4375"/><stop stop-opacity="1" stop-color="rgb(79.319763%, 17.196655%, 44.558716%)" offset="0.445312"/><stop stop-opacity="1" stop-color="rgb(79.016113%, 17.044067%, 44.291687%)" offset="0.453125"/><stop stop-opacity="1" stop-color="rgb(78.713989%, 16.889954%, 44.023132%)" offset="0.460937"/><stop stop-opacity="1" stop-color="rgb(78.411865%, 16.737366%, 43.754578%)" offset="0.46875"/><stop stop-opacity="1" stop-color="rgb(78.108215%, 16.584778%, 43.487549%)" offset="0.476562"/><stop stop-opacity="1" stop-color="rgb(77.806091%, 16.43219%, 43.218994%)" offset="0.484375"/><stop stop-opacity="1" stop-color="rgb(77.502441%, 16.278076%, 42.950439%)" offset="0.492188"/><stop stop-opacity="1" stop-color="rgb(77.200317%, 16.125488%, 42.683411%)" offset="0.5"/><stop stop-opacity="1" stop-color="rgb(77.049255%, 16.049194%, 42.549133%)" offset="0.5"/><stop stop-opacity="1" stop-color="rgb(76.898193%, 15.9729%, 42.414856%)" offset="0.5"/><stop stop-opacity="1" stop-color="rgb(76.747131%, 15.896606%, 42.280579%)" offset="0.507812"/><stop stop-opacity="1" stop-color="rgb(76.594543%, 15.820312%, 42.146301%)" offset="0.515625"/><stop stop-opacity="1" stop-color="rgb(76.292419%, 15.666199%, 41.879272%)" offset="0.523438"/><stop stop-opacity="1" stop-color="rgb(75.98877%, 15.513611%, 41.610718%)" offset="0.53125"/><stop stop-opacity="1" stop-color="rgb(75.686646%, 15.361023%, 41.343689%)" offset="0.539062"/><stop stop-opacity="1" stop-color="rgb(75.384521%, 15.206909%, 41.075134%)" offset="0.546875"/><stop stop-opacity="1" stop-color="rgb(75.080872%, 15.054321%, 40.80658%)" offset="0.554687"/><stop stop-opacity="1" stop-color="rgb(74.778748%, 14.901733%, 40.539551%)" offset="0.5625"/><stop stop-opacity="1" stop-color="rgb(74.475098%, 14.749146%, 40.270996%)" offset="0.570312"/><stop stop-opacity="1" stop-color="rgb(74.172974%, 14.595032%, 40.002441%)" offset="0.578125"/><stop stop-opacity="1" stop-color="rgb(73.87085%, 14.442444%, 39.735413%)" offset="0.585937"/><stop stop-opacity="1" stop-color="rgb(73.5672%, 14.289856%, 39.466858%)" offset="0.59375"/><stop stop-opacity="1" stop-color="rgb(73.265076%, 14.137268%, 39.198303%)" offset="0.601562"/><stop stop-opacity="1" stop-color="rgb(72.961426%, 13.983154%, 38.931274%)" offset="0.609375"/><stop stop-opacity="1" stop-color="rgb(72.659302%, 13.830566%, 38.66272%)" offset="0.617188"/><stop stop-opacity="1" stop-color="rgb(72.357178%, 13.677979%, 38.394165%)" offset="0.625"/><stop stop-opacity="1" stop-color="rgb(72.053528%, 13.525391%, 38.127136%)" offset="0.632812"/><stop stop-opacity="1" stop-color="rgb(71.751404%, 13.371277%, 37.858582%)" offset="0.640625"/><stop stop-opacity="1" stop-color="rgb(71.44928%, 13.218689%, 37.591553%)" offset="0.648437"/><stop stop-opacity="1" stop-color="rgb(71.14563%, 13.066101%, 37.322998%)" offset="0.65625"/><stop stop-opacity="1" stop-color="rgb(70.843506%, 12.913513%, 37.054443%)" offset="0.664062"/><stop stop-opacity="1" stop-color="rgb(70.539856%, 12.759399%, 36.787415%)" offset="0.671875"/><stop stop-opacity="1" stop-color="rgb(70.237732%, 12.606812%, 36.51886%)" offset="0.679687"/><stop stop-opacity="1" stop-color="rgb(69.935608%, 12.454224%, 36.250305%)" offset="0.6875"/><stop stop-opacity="1" stop-color="rgb(69.631958%, 12.30011%, 35.983276%)" offset="0.695312"/><stop stop-opacity="1" stop-color="rgb(69.329834%, 12.147522%, 35.714722%)" offset="0.703125"/><stop stop-opacity="1" stop-color="rgb(69.026184%, 11.994934%, 35.446167%)" offset="0.710938"/><stop stop-opacity="1" stop-color="rgb(68.72406%, 11.842346%, 35.179138%)" offset="0.71875"/><stop stop-opacity="1" stop-color="rgb(68.421936%, 11.688232%, 34.910583%)" offset="0.726562"/><stop stop-opacity="1" stop-color="rgb(68.118286%, 11.535645%, 34.643555%)" offset="0.734375"/><stop stop-opacity="1" stop-color="rgb(67.816162%, 11.383057%, 34.375%)" offset="0.742188"/><stop stop-opacity="1" stop-color="rgb(67.512512%, 11.230469%, 34.106445%)" offset="0.75"/><stop stop-opacity="1" stop-color="rgb(67.210388%, 11.076355%, 33.839417%)" offset="0.757812"/><stop stop-opacity="1" stop-color="rgb(66.908264%, 10.923767%, 33.570862%)" offset="0.765625"/><stop stop-opacity="1" stop-color="rgb(66.604614%, 10.771179%, 33.302307%)" offset="0.773437"/><stop stop-opacity="1" stop-color="rgb(66.30249%, 10.618591%, 33.035278%)" offset="0.78125"/><stop stop-opacity="1" stop-color="rgb(65.99884%, 10.464478%, 32.766724%)" offset="0.789062"/><stop stop-opacity="1" stop-color="rgb(65.696716%, 10.31189%, 32.498169%)" offset="0.796875"/><stop stop-opacity="1" stop-color="rgb(65.394592%, 10.159302%, 32.23114%)" offset="0.804688"/><stop stop-opacity="1" stop-color="rgb(65.090942%, 10.006714%, 31.962585%)" offset="0.8125"/><stop stop-opacity="1" stop-color="rgb(64.788818%, 9.8526%, 31.695557%)" offset="0.820312"/><stop stop-opacity="1" stop-color="rgb(64.485168%, 9.700012%, 31.427002%)" offset="0.828125"/><stop stop-opacity="1" stop-color="rgb(64.183044%, 9.547424%, 31.158447%)" offset="0.835938"/><stop stop-opacity="1" stop-color="rgb(63.88092%, 9.393311%, 30.891418%)" offset="0.84375"/><stop stop-opacity="1" stop-color="rgb(63.577271%, 9.240723%, 30.622864%)" offset="0.851562"/><stop stop-opacity="1" stop-color="rgb(63.275146%, 9.088135%, 30.354309%)" offset="0.859375"/><stop stop-opacity="1" stop-color="rgb(63.111877%, 9.005737%, 30.209351%)" offset="0.875"/><stop stop-opacity="1" stop-color="rgb(63.09967%, 8.999634%, 30.198669%)" offset="1"/></linearGradient></defs><g clip-path="url(#cff0c40aac)"><g clip-path="url(#9e3507f354)"><path fill="url(#37ef3efbde)" d="M 22.480469 160.046875 L 22.480469 214.792969 L 77.226562 214.792969 L 77.226562 160.046875 Z M 22.480469 160.046875 " fill-rule="nonzero"/></g></g><path fill="#ffffff" d="M 34.25 201.070312 L 33.390625 201.925781 L 35.34375 203.886719 L 36.207031 203.027344 Z M 34.25 201.070312 " fill-opacity="1" fill-rule="evenodd"/><path fill="#ffffff" d="M 36.953125 199.203125 C 37.203125 199.453125 37.019531 199.878906 36.671875 199.878906 C 36.570312 199.878906 36.46875 199.839844 36.390625 199.761719 L 35.335938 198.707031 L 34.167969 199.871094 L 37.398438 203.101562 L 44.085938 196.414062 L 40.855469 193.1875 L 39.6875 194.355469 L 40.746094 195.410156 C 40.996094 195.660156 40.816406 196.085938 40.46875 196.085938 C 40.367188 196.085938 40.265625 196.046875 40.1875 195.96875 L 39.128906 194.914062 L 37.792969 196.25 L 38.851562 197.308594 C 39.097656 197.554688 38.921875 197.980469 38.570312 197.980469 C 38.46875 197.980469 38.367188 197.941406 38.292969 197.867188 L 37.234375 196.808594 L 35.894531 198.144531 Z M 36.953125 199.203125 " fill-opacity="1" fill-rule="evenodd"/><path fill="#ffffff" d="M 42.125 199.492188 L 40.472656 201.140625 L 41.640625 202.308594 L 43.292969 200.664062 Z M 42.125 199.492188 " fill-opacity="1" fill-rule="evenodd"/><path fill="#ffffff" d="M 42.046875 193.265625 L 43.242188 192.070312 L 45.207031 194.035156 L 44.015625 195.230469 Z M 42.046875 193.265625 " fill-opacity="1" fill-rule="evenodd"/><path fill="#ffffff" d="M 44.109375 189.9375 L 43.171875 190.878906 L 43.519531 191.230469 L 43.523438 191.230469 L 46.398438 194.105469 L 47.335938 193.167969 Z M 44.109375 189.9375 " fill-opacity="1" fill-rule="evenodd"/><path fill="#ffffff" d="M 64.261719 171.316406 L 45.429688 190.140625 L 47.136719 191.847656 L 65.960938 173.015625 C 66.429688 172.550781 66.429688 171.789062 65.957031 171.3125 C 65.492188 170.839844 64.734375 170.84375 64.261719 171.316406 Z M 64.261719 171.316406 " fill-opacity="1" fill-rule="evenodd"/><g fill="#ffffff" fill-opacity="1"><g transform="translate(86.279479, 194.065007)"><g><path d="M 2.546875 -14.546875 L 2.546875 -19.96875 L 7.578125 -19.96875 L 7.578125 -14.546875 L 10.640625 -14.546875 L 10.640625 -10.71875 L 7.578125 -10.71875 L 7.578125 -6.09375 C 7.578125 -4.75 7.953125 -4.078125 8.703125 -4.078125 C 8.890625 -4.078125 9.085938 -4.113281 9.296875 -4.1875 C 9.503906 -4.269531 9.664062 -4.347656 9.78125 -4.421875 L 9.953125 -4.53125 L 11.203125 -0.484375 C 10.117188 0.117188 8.890625 0.421875 7.515625 0.421875 C 6.566406 0.421875 5.753906 0.257812 5.078125 -0.0625 C 4.398438 -0.394531 3.882812 -0.835938 3.53125 -1.390625 C 3.175781 -1.953125 2.921875 -2.539062 2.765625 -3.15625 C 2.617188 -3.769531 2.546875 -4.429688 2.546875 -5.140625 L 2.546875 -10.71875 L 0.453125 -10.71875 L 0.453125 -14.546875 Z M 2.546875 -14.546875 "/></g></g></g><g fill="#ffffff" fill-opacity="1"><g transform="translate(97.476836, 194.065007)"><g><path d="M 1.703125 0 L 1.703125 -24.390625 L 6.71875 -24.390625 L 6.71875 -13.015625 L 6.78125 -13.015625 C 8.082031 -14.316406 9.472656 -14.96875 10.953125 -14.96875 C 11.671875 -14.96875 12.382812 -14.875 13.09375 -14.6875 C 13.800781 -14.5 14.476562 -14.207031 15.125 -13.8125 C 15.78125 -13.414062 16.3125 -12.851562 16.71875 -12.125 C 17.125 -11.394531 17.328125 -10.546875 17.328125 -9.578125 L 17.328125 0 L 12.3125 0 L 12.3125 -8.21875 C 12.3125 -8.976562 12.066406 -9.640625 11.578125 -10.203125 C 11.097656 -10.773438 10.472656 -11.0625 9.703125 -11.0625 C 8.941406 -11.0625 8.253906 -10.765625 7.640625 -10.171875 C 7.023438 -9.585938 6.71875 -8.9375 6.71875 -8.21875 L 6.71875 0 Z M 1.703125 0 "/></g></g></g><g fill="#ffffff" fill-opacity="1"><g transform="translate(116.214681, 194.065007)"><g><path d="M 16.421875 -6.578125 L 5.875 -6.578125 C 5.875 -5.554688 6.203125 -4.800781 6.859375 -4.3125 C 7.523438 -3.820312 8.242188 -3.578125 9.015625 -3.578125 C 9.828125 -3.578125 10.46875 -3.679688 10.9375 -3.890625 C 11.414062 -4.109375 11.957031 -4.539062 12.5625 -5.1875 L 16.1875 -3.375 C 14.675781 -0.84375 12.164062 0.421875 8.65625 0.421875 C 6.457031 0.421875 4.570312 -0.328125 3 -1.828125 C 1.4375 -3.328125 0.65625 -5.132812 0.65625 -7.25 C 0.65625 -9.375 1.4375 -11.191406 3 -12.703125 C 4.570312 -14.210938 6.457031 -14.96875 8.65625 -14.96875 C 10.957031 -14.96875 12.832031 -14.300781 14.28125 -12.96875 C 15.726562 -11.632812 16.453125 -9.734375 16.453125 -7.265625 C 16.453125 -6.921875 16.441406 -6.691406 16.421875 -6.578125 Z M 6.015625 -9.359375 L 11.546875 -9.359375 C 11.429688 -10.117188 11.128906 -10.703125 10.640625 -11.109375 C 10.160156 -11.515625 9.546875 -11.71875 8.796875 -11.71875 C 7.960938 -11.71875 7.296875 -11.5 6.796875 -11.0625 C 6.304688 -10.625 6.046875 -10.054688 6.015625 -9.359375 Z M 6.015625 -9.359375 "/></g></g></g><g fill="#ffffff" fill-opacity="1"><g transform="translate(133.308364, 194.065007)"><g/></g></g><g fill="#ffffff" fill-opacity="1"><g transform="translate(141.047294, 194.065007)"><g><path d="M 2.171875 -22.65625 C 2.765625 -23.238281 3.46875 -23.53125 4.28125 -23.53125 C 5.09375 -23.53125 5.789062 -23.238281 6.375 -22.65625 C 6.96875 -22.070312 7.265625 -21.375 7.265625 -20.5625 C 7.265625 -19.75 6.96875 -19.046875 6.375 -18.453125 C 5.789062 -17.867188 5.09375 -17.578125 4.28125 -17.578125 C 3.46875 -17.578125 2.765625 -17.867188 2.171875 -18.453125 C 1.585938 -19.046875 1.296875 -19.75 1.296875 -20.5625 C 1.296875 -21.375 1.585938 -22.070312 2.171875 -22.65625 Z M 1.703125 -14.546875 L 1.703125 1.28125 C 1.703125 2.601562 1.238281 3.265625 0.3125 3.265625 C 0.125 3.265625 -0.0703125 3.226562 -0.28125 3.15625 C -0.488281 3.09375 -0.660156 3.023438 -0.796875 2.953125 L -0.96875 2.84375 L -2.53125 6.890625 C -2.488281 6.910156 -2.363281 6.96875 -2.15625 7.0625 C -1.945312 7.15625 -1.789062 7.222656 -1.6875 7.265625 C -1.582031 7.316406 -1.40625 7.378906 -1.15625 7.453125 C -0.914062 7.535156 -0.679688 7.59375 -0.453125 7.625 C -0.222656 7.664062 0.0546875 7.703125 0.390625 7.734375 C 0.734375 7.773438 1.09375 7.796875 1.46875 7.796875 C 2.414062 7.796875 3.25 7.628906 3.96875 7.296875 C 4.6875 6.972656 5.234375 6.53125 5.609375 5.96875 C 5.992188 5.414062 6.273438 4.832031 6.453125 4.21875 C 6.628906 3.601562 6.71875 2.941406 6.71875 2.234375 L 6.71875 -14.546875 Z M 1.703125 -14.546875 "/></g></g></g><g fill="#ffffff" fill-opacity="1"><g transform="translate(149.466574, 194.065007)"><g><path d="M 16.421875 -6.578125 L 5.875 -6.578125 C 5.875 -5.554688 6.203125 -4.800781 6.859375 -4.3125 C 7.523438 -3.820312 8.242188 -3.578125 9.015625 -3.578125 C 9.828125 -3.578125 10.46875 -3.679688 10.9375 -3.890625 C 11.414062 -4.109375 11.957031 -4.539062 12.5625 -5.1875 L 16.1875 -3.375 C 14.675781 -0.84375 12.164062 0.421875 8.65625 0.421875 C 6.457031 0.421875 4.570312 -0.328125 3 -1.828125 C 1.4375 -3.328125 0.65625 -5.132812 0.65625 -7.25 C 0.65625 -9.375 1.4375 -11.191406 3 -12.703125 C 4.570312 -14.210938 6.457031 -14.96875 8.65625 -14.96875 C 10.957031 -14.96875 12.832031 -14.300781 14.28125 -12.96875 C 15.726562 -11.632812 16.453125 -9.734375 16.453125 -7.265625 C 16.453125 -6.921875 16.441406 -6.691406 16.421875 -6.578125 Z M 6.015625 -9.359375 L 11.546875 -9.359375 C 11.429688 -10.117188 11.128906 -10.703125 10.640625 -11.109375 C 10.160156 -11.515625 9.546875 -11.71875 8.796875 -11.71875 C 7.960938 -11.71875 7.296875 -11.5 6.796875 -11.0625 C 6.304688 -10.625 6.046875 -10.054688 6.015625 -9.359375 Z M 6.015625 -9.359375 "/></g></g></g><g fill="#ffffff" fill-opacity="1"><g transform="translate(166.560258, 194.065007)"><g><path d="M 2.6875 -1.796875 C 1.332031 -3.285156 0.65625 -5.109375 0.65625 -7.265625 C 0.65625 -9.421875 1.332031 -11.242188 2.6875 -12.734375 C 4.050781 -14.222656 5.785156 -14.96875 7.890625 -14.96875 C 9.816406 -14.96875 11.398438 -14.363281 12.640625 -13.15625 L 12.640625 -24.390625 L 17.671875 -24.390625 L 17.671875 0 L 12.703125 0 L 12.703125 -1.640625 L 12.640625 -1.640625 C 11.398438 -0.265625 9.816406 0.421875 7.890625 0.421875 C 5.785156 0.421875 4.050781 -0.316406 2.6875 -1.796875 Z M 6.953125 -9.71875 C 6.304688 -9.082031 5.984375 -8.257812 5.984375 -7.25 C 5.984375 -6.25 6.296875 -5.429688 6.921875 -4.796875 C 7.546875 -4.171875 8.367188 -3.859375 9.390625 -3.859375 C 10.367188 -3.859375 11.175781 -4.175781 11.8125 -4.8125 C 12.445312 -5.457031 12.765625 -6.273438 12.765625 -7.265625 C 12.765625 -8.265625 12.4375 -9.082031 11.78125 -9.71875 C 11.132812 -10.363281 10.335938 -10.6875 9.390625 -10.6875 C 8.421875 -10.6875 7.609375 -10.363281 6.953125 -9.71875 Z M 6.953125 -9.71875 "/></g></g></g><g fill="#ffffff" fill-opacity="1"><g transform="translate(185.92176, 194.065007)"><g><path d="M 2.171875 -22.65625 C 2.765625 -23.238281 3.46875 -23.53125 4.28125 -23.53125 C 5.09375 -23.53125 5.789062 -23.238281 6.375 -22.65625 C 6.96875 -22.070312 7.265625 -21.375 7.265625 -20.5625 C 7.265625 -19.75 6.96875 -19.046875 6.375 -18.453125 C 5.789062 -17.867188 5.09375 -17.578125 4.28125 -17.578125 C 3.46875 -17.578125 2.765625 -17.867188 2.171875 -18.453125 C 1.585938 -19.046875 1.296875 -19.75 1.296875 -20.5625 C 1.296875 -21.375 1.585938 -22.070312 2.171875 -22.65625 Z M 1.703125 -14.546875 L 1.703125 0 L 6.71875 0 L 6.71875 -14.546875 Z M 1.703125 -14.546875 "/></g></g></g><g fill="#ffffff" fill-opacity="1"><g transform="translate(194.482776, 194.065007)"><g/></g></g><g fill="#ffffff" fill-opacity="1"><g transform="translate(202.221705, 194.065007)"><g><path d="M 9.4375 -10.859375 C 8.5 -10.859375 7.6875 -10.507812 7 -9.8125 C 6.320312 -9.113281 5.984375 -8.269531 5.984375 -7.28125 C 5.984375 -6.28125 6.320312 -5.429688 7 -4.734375 C 7.6875 -4.035156 8.5 -3.6875 9.4375 -3.6875 C 9.894531 -3.6875 10.328125 -3.742188 10.734375 -3.859375 C 11.140625 -3.972656 11.4375 -4.085938 11.625 -4.203125 L 11.875 -4.375 L 13.578125 -0.875 C 13.453125 -0.78125 13.269531 -0.660156 13.03125 -0.515625 C 12.789062 -0.378906 12.25 -0.191406 11.40625 0.046875 C 10.570312 0.296875 9.671875 0.421875 8.703125 0.421875 C 6.566406 0.421875 4.691406 -0.328125 3.078125 -1.828125 C 1.460938 -3.328125 0.65625 -5.128906 0.65625 -7.234375 C 0.65625 -9.347656 1.460938 -11.164062 3.078125 -12.6875 C 4.691406 -14.207031 6.566406 -14.96875 8.703125 -14.96875 C 9.671875 -14.96875 10.5625 -14.851562 11.375 -14.625 C 12.1875 -14.40625 12.765625 -14.179688 13.109375 -13.953125 L 13.578125 -13.609375 L 11.875 -10.1875 C 11.257812 -10.632812 10.445312 -10.859375 9.4375 -10.859375 Z M 9.4375 -10.859375 "/></g></g></g><g fill="#ffffff" fill-opacity="1"><g transform="translate(216.140443, 194.065007)"><g><path d="M 3.078125 -1.734375 C 1.460938 -3.171875 0.65625 -5.015625 0.65625 -7.265625 C 0.65625 -9.515625 1.492188 -11.359375 3.171875 -12.796875 C 4.859375 -14.242188 6.941406 -14.96875 9.421875 -14.96875 C 11.859375 -14.96875 13.910156 -14.238281 15.578125 -12.78125 C 17.253906 -11.332031 18.09375 -9.488281 18.09375 -7.25 C 18.09375 -5.019531 17.273438 -3.179688 15.640625 -1.734375 C 14.003906 -0.296875 11.929688 0.421875 9.421875 0.421875 C 6.804688 0.421875 4.691406 -0.296875 3.078125 -1.734375 Z M 6.953125 -9.71875 C 6.304688 -9.082031 5.984375 -8.257812 5.984375 -7.25 C 5.984375 -6.25 6.296875 -5.429688 6.921875 -4.796875 C 7.546875 -4.171875 8.367188 -3.859375 9.390625 -3.859375 C 10.367188 -3.859375 11.175781 -4.175781 11.8125 -4.8125 C 12.445312 -5.457031 12.765625 -6.273438 12.765625 -7.265625 C 12.765625 -8.265625 12.4375 -9.082031 11.78125 -9.71875 C 11.132812 -10.363281 10.335938 -10.6875 9.390625 -10.6875 C 8.421875 -10.6875 7.609375 -10.363281 6.953125 -9.71875 Z M 6.953125 -9.71875 "/></g></g></g><g fill="#ffffff" fill-opacity="1"><g transform="translate(234.878288, 194.065007)"><g><path d="M 1.703125 0 L 1.703125 -24.390625 L 6.71875 -24.390625 L 6.71875 0 Z M 1.703125 0 "/></g></g></g><g fill="#ffffff" fill-opacity="1"><g transform="translate(243.297569, 194.065007)"><g><path d="M 1.703125 0 L 1.703125 -24.390625 L 6.71875 -24.390625 L 6.71875 0 Z M 1.703125 0 "/></g></g></g><g fill="#ffffff" fill-opacity="1"><g transform="translate(251.716849, 194.065007)"><g><path d="M 16.421875 -6.578125 L 5.875 -6.578125 C 5.875 -5.554688 6.203125 -4.800781 6.859375 -4.3125 C 7.523438 -3.820312 8.242188 -3.578125 9.015625 -3.578125 C 9.828125 -3.578125 10.46875 -3.679688 10.9375 -3.890625 C 11.414062 -4.109375 11.957031 -4.539062 12.5625 -5.1875 L 16.1875 -3.375 C 14.675781 -0.84375 12.164062 0.421875 8.65625 0.421875 C 6.457031 0.421875 4.570312 -0.328125 3 -1.828125 C 1.4375 -3.328125 0.65625 -5.132812 0.65625 -7.25 C 0.65625 -9.375 1.4375 -11.191406 3 -12.703125 C 4.570312 -14.210938 6.457031 -14.96875 8.65625 -14.96875 C 10.957031 -14.96875 12.832031 -14.300781 14.28125 -12.96875 C 15.726562 -11.632812 16.453125 -9.734375 16.453125 -7.265625 C 16.453125 -6.921875 16.441406 -6.691406 16.421875 -6.578125 Z M 6.015625 -9.359375 L 11.546875 -9.359375 C 11.429688 -10.117188 11.128906 -10.703125 10.640625 -11.109375 C 10.160156 -11.515625 9.546875 -11.71875 8.796875 -11.71875 C 7.960938 -11.71875 7.296875 -11.5 6.796875 -11.0625 C 6.304688 -10.625 6.046875 -10.054688 6.015625 -9.359375 Z M 6.015625 -9.359375 "/></g></g></g><g fill="#ffffff" fill-opacity="1"><g transform="translate(268.810533, 194.065007)"><g><path d="M 9.4375 -10.859375 C 8.5 -10.859375 7.6875 -10.507812 7 -9.8125 C 6.320312 -9.113281 5.984375 -8.269531 5.984375 -7.28125 C 5.984375 -6.28125 6.320312 -5.429688 7 -4.734375 C 7.6875 -4.035156 8.5 -3.6875 9.4375 -3.6875 C 9.894531 -3.6875 10.328125 -3.742188 10.734375 -3.859375 C 11.140625 -3.972656 11.4375 -4.085938 11.625 -4.203125 L 11.875 -4.375 L 13.578125 -0.875 C 13.453125 -0.78125 13.269531 -0.660156 13.03125 -0.515625 C 12.789062 -0.378906 12.25 -0.191406 11.40625 0.046875 C 10.570312 0.296875 9.671875 0.421875 8.703125 0.421875 C 6.566406 0.421875 4.691406 -0.328125 3.078125 -1.828125 C 1.460938 -3.328125 0.65625 -5.128906 0.65625 -7.234375 C 0.65625 -9.347656 1.460938 -11.164062 3.078125 -12.6875 C 4.691406 -14.207031 6.566406 -14.96875 8.703125 -14.96875 C 9.671875 -14.96875 10.5625 -14.851562 11.375 -14.625 C 12.1875 -14.40625 12.765625 -14.179688 13.109375 -13.953125 L 13.578125 -13.609375 L 11.875 -10.1875 C 11.257812 -10.632812 10.445312 -10.859375 9.4375 -10.859375 Z M 9.4375 -10.859375 "/></g></g></g><g fill="#ffffff" fill-opacity="1"><g transform="translate(282.729271, 194.065007)"><g><path d="M 2.546875 -14.546875 L 2.546875 -19.96875 L 7.578125 -19.96875 L 7.578125 -14.546875 L 10.640625 -14.546875 L 10.640625 -10.71875 L 7.578125 -10.71875 L 7.578125 -6.09375 C 7.578125 -4.75 7.953125 -4.078125 8.703125 -4.078125 C 8.890625 -4.078125 9.085938 -4.113281 9.296875 -4.1875 C 9.503906 -4.269531 9.664062 -4.347656 9.78125 -4.421875 L 9.953125 -4.53125 L 11.203125 -0.484375 C 10.117188 0.117188 8.890625 0.421875 7.515625 0.421875 C 6.566406 0.421875 5.753906 0.257812 5.078125 -0.0625 C 4.398438 -0.394531 3.882812 -0.835938 3.53125 -1.390625 C 3.175781 -1.953125 2.921875 -2.539062 2.765625 -3.15625 C 2.617188 -3.769531 2.546875 -4.429688 2.546875 -5.140625 L 2.546875 -10.71875 L 0.453125 -10.71875 L 0.453125 -14.546875 Z M 2.546875 -14.546875 "/></g></g></g><g fill="#ffffff" fill-opacity="1"><g transform="translate(293.926628, 194.065007)"><g><path d="M 2.171875 -22.65625 C 2.765625 -23.238281 3.46875 -23.53125 4.28125 -23.53125 C 5.09375 -23.53125 5.789062 -23.238281 6.375 -22.65625 C 6.96875 -22.070312 7.265625 -21.375 7.265625 -20.5625 C 7.265625 -19.75 6.96875 -19.046875 6.375 -18.453125 C 5.789062 -17.867188 5.09375 -17.578125 4.28125 -17.578125 C 3.46875 -17.578125 2.765625 -17.867188 2.171875 -18.453125 C 1.585938 -19.046875 1.296875 -19.75 1.296875 -20.5625 C 1.296875 -21.375 1.585938 -22.070312 2.171875 -22.65625 Z M 1.703125 -14.546875 L 1.703125 0 L 6.71875 0 L 6.71875 -14.546875 Z M 1.703125 -14.546875 "/></g></g></g><g fill="#ffffff" fill-opacity="1"><g transform="translate(302.487655, 194.065007)"><g><path d="M 5.390625 -14.546875 L 8.9375 -6.640625 L 12.484375 -14.546875 L 18.4375 -14.546875 L 10.640625 0 L 7.234375 0 L -0.5625 -14.546875 Z M 5.390625 -14.546875 "/></g></g></g><g fill="#ffffff" fill-opacity="1"><g transform="translate(320.346708, 194.065007)"><g><path d="M 16.421875 -6.578125 L 5.875 -6.578125 C 5.875 -5.554688 6.203125 -4.800781 6.859375 -4.3125 C 7.523438 -3.820312 8.242188 -3.578125 9.015625 -3.578125 C 9.828125 -3.578125 10.46875 -3.679688 10.9375 -3.890625 C 11.414062 -4.109375 11.957031 -4.539062 12.5625 -5.1875 L 16.1875 -3.375 C 14.675781 -0.84375 12.164062 0.421875 8.65625 0.421875 C 6.457031 0.421875 4.570312 -0.328125 3 -1.828125 C 1.4375 -3.328125 0.65625 -5.132812 0.65625 -7.25 C 0.65625 -9.375 1.4375 -11.191406 3 -12.703125 C 4.570312 -14.210938 6.457031 -14.96875 8.65625 -14.96875 C 10.957031 -14.96875 12.832031 -14.300781 14.28125 -12.96875 C 15.726562 -11.632812 16.453125 -9.734375 16.453125 -7.265625 C 16.453125 -6.921875 16.441406 -6.691406 16.421875 -6.578125 Z M 6.015625 -9.359375 L 11.546875 -9.359375 C 11.429688 -10.117188 11.128906 -10.703125 10.640625 -11.109375 C 10.160156 -11.515625 9.546875 -11.71875 8.796875 -11.71875 C 7.960938 -11.71875 7.296875 -11.5 6.796875 -11.0625 C 6.304688 -10.625 6.046875 -10.054688 6.015625 -9.359375 Z M 6.015625 -9.359375 "/></g></g></g></svg>