<svg xmlns="http://www.w3.org/2000/svg" xmlns:xlink="http://www.w3.org/1999/xlink" width="500" zoomAndPan="magnify" viewBox="0 0 375 374.999991" height="500" preserveAspectRatio="xMidYMid meet" version="1.0"><defs><clipPath id="74438afcca"><path d="M 7.835938 7.835938 L 367.085938 7.835938 L 367.085938 367.085938 L 7.835938 367.085938 Z M 7.835938 7.835938 " clip-rule="nonzero"/></clipPath><clipPath id="bb4cd9137a"><path d="M 367.054688 187.488281 C 367.054688 190.429688 366.984375 193.367188 366.839844 196.304688 C 366.695312 199.238281 366.480469 202.171875 366.191406 205.097656 C 365.902344 208.023438 365.542969 210.9375 365.113281 213.847656 C 364.679688 216.753906 364.179688 219.648438 363.605469 222.53125 C 363.03125 225.417969 362.386719 228.285156 361.671875 231.136719 C 360.960938 233.988281 360.175781 236.820312 359.320312 239.632812 C 358.46875 242.445312 357.546875 245.234375 356.554688 248.003906 C 355.566406 250.773438 354.507812 253.515625 353.382812 256.230469 C 352.257812 258.945312 351.066406 261.632812 349.808594 264.289062 C 348.554688 266.945312 347.230469 269.570312 345.847656 272.164062 C 344.460938 274.757812 343.011719 277.3125 341.5 279.835938 C 339.988281 282.355469 338.417969 284.839844 336.785156 287.285156 C 335.152344 289.730469 333.457031 292.132812 331.707031 294.492188 C 329.957031 296.855469 328.148438 299.171875 326.285156 301.441406 C 324.417969 303.714844 322.5 305.941406 320.523438 308.117188 C 318.550781 310.296875 316.523438 312.425781 314.445312 314.503906 C 312.367188 316.582031 310.238281 318.609375 308.058594 320.582031 C 305.882812 322.558594 303.65625 324.476562 301.382812 326.34375 C 299.113281 328.207031 296.796875 330.015625 294.433594 331.765625 C 292.074219 333.515625 289.671875 335.210938 287.226562 336.84375 C 284.78125 338.476562 282.296875 340.046875 279.777344 341.558594 C 277.253906 343.070312 274.699219 344.519531 272.105469 345.90625 C 269.511719 347.289062 266.886719 348.613281 264.230469 349.871094 C 261.574219 351.125 258.886719 352.316406 256.171875 353.441406 C 253.453125 354.566406 250.714844 355.625 247.945312 356.613281 C 245.175781 357.605469 242.386719 358.527344 239.574219 359.378906 C 236.761719 360.234375 233.929688 361.019531 231.078125 361.730469 C 228.226562 362.445312 225.359375 363.089844 222.472656 363.664062 C 219.589844 364.238281 216.695312 364.738281 213.789062 365.171875 C 210.878906 365.601562 207.964844 365.960938 205.039062 366.25 C 202.113281 366.539062 199.179688 366.753906 196.246094 366.898438 C 193.308594 367.042969 190.371094 367.113281 187.429688 367.113281 C 184.492188 367.113281 181.554688 367.042969 178.617188 366.898438 C 175.679688 366.753906 172.75 366.539062 169.824219 366.25 C 166.898438 365.960938 163.984375 365.601562 161.074219 365.171875 C 158.167969 364.738281 155.273438 364.238281 152.386719 363.664062 C 149.503906 363.089844 146.636719 362.445312 143.785156 361.730469 C 140.933594 361.019531 138.101562 360.234375 135.289062 359.378906 C 132.476562 358.527344 129.683594 357.605469 126.917969 356.613281 C 124.148438 355.625 121.40625 354.566406 118.691406 353.441406 C 115.976562 352.316406 113.289062 351.125 110.632812 349.871094 C 107.972656 348.613281 105.347656 347.289062 102.757812 345.90625 C 100.164062 344.519531 97.605469 343.070312 95.085938 341.558594 C 92.5625 340.046875 90.082031 338.476562 87.636719 336.84375 C 85.191406 335.210938 82.789062 333.515625 80.429688 331.765625 C 78.066406 330.015625 75.75 328.207031 73.480469 326.34375 C 71.207031 324.476562 68.980469 322.558594 66.800781 320.582031 C 64.625 318.609375 62.496094 316.582031 60.417969 314.503906 C 58.339844 312.425781 56.3125 310.296875 54.339844 308.117188 C 52.363281 305.941406 50.445312 303.714844 48.578125 301.441406 C 46.714844 299.171875 44.90625 296.855469 43.15625 294.492188 C 41.402344 292.132812 39.710938 289.730469 38.078125 287.285156 C 36.445312 284.839844 34.875 282.355469 33.363281 279.835938 C 31.851562 277.3125 30.402344 274.757812 29.015625 272.164062 C 27.628906 269.570312 26.308594 266.945312 25.050781 264.289062 C 23.796875 261.632812 22.605469 258.945312 21.480469 256.230469 C 20.355469 253.515625 19.296875 250.773438 18.308594 248.003906 C 17.316406 245.234375 16.394531 242.445312 15.542969 239.632812 C 14.6875 236.820312 13.902344 233.988281 13.191406 231.136719 C 12.476562 228.285156 11.832031 225.417969 11.257812 222.53125 C 10.683594 219.648438 10.183594 216.753906 9.75 213.847656 C 9.320312 210.9375 8.960938 208.023438 8.671875 205.097656 C 8.382812 202.171875 8.167969 199.238281 8.023438 196.304688 C 7.878906 193.367188 7.804688 190.429688 7.804688 187.488281 C 7.804688 184.550781 7.878906 181.613281 8.023438 178.675781 C 8.167969 175.738281 8.382812 172.808594 8.671875 169.882812 C 8.960938 166.957031 9.320312 164.042969 9.75 161.132812 C 10.183594 158.226562 10.683594 155.332031 11.257812 152.445312 C 11.832031 149.5625 12.476562 146.695312 13.191406 143.84375 C 13.902344 140.992188 14.6875 138.160156 15.542969 135.347656 C 16.394531 132.535156 17.316406 129.746094 18.304688 126.976562 C 19.296875 124.207031 20.355469 121.464844 21.480469 118.75 C 22.605469 116.035156 23.796875 113.347656 25.050781 110.691406 C 26.308594 108.03125 27.628906 105.40625 29.015625 102.816406 C 30.402344 100.222656 31.851562 97.664062 33.363281 95.144531 C 34.875 92.621094 36.445312 90.140625 38.078125 87.695312 C 39.710938 85.25 41.402344 82.847656 43.15625 80.488281 C 44.90625 78.125 46.714844 75.808594 48.578125 73.539062 C 50.445312 71.265625 52.363281 69.039062 54.339844 66.863281 C 56.3125 64.683594 58.339844 62.554688 60.417969 60.476562 C 62.496094 58.398438 64.625 56.371094 66.800781 54.398438 C 68.980469 52.421875 71.207031 50.503906 73.480469 48.636719 C 75.75 46.773438 78.066406 44.964844 80.429688 43.214844 C 82.789062 41.460938 85.191406 39.769531 87.636719 38.136719 C 90.082031 36.503906 92.5625 34.933594 95.085938 33.421875 C 97.605469 31.910156 100.164062 30.460938 102.757812 29.074219 C 105.347656 27.6875 107.972656 26.367188 110.632812 25.109375 C 113.289062 23.855469 115.976562 22.664062 118.691406 21.539062 C 121.40625 20.414062 124.148438 19.355469 126.917969 18.367188 C 129.683594 17.375 132.476562 16.453125 135.289062 15.601562 C 138.101562 14.746094 140.933594 13.960938 143.785156 13.25 C 146.636719 12.535156 149.503906 11.890625 152.386719 11.316406 C 155.273438 10.742188 158.167969 10.242188 161.074219 9.808594 C 163.984375 9.378906 166.898438 9.019531 169.824219 8.730469 C 172.75 8.441406 175.679688 8.226562 178.617188 8.082031 C 181.554688 7.9375 184.492188 7.863281 187.429688 7.863281 C 190.371094 7.863281 193.308594 7.9375 196.246094 8.082031 C 199.179688 8.226562 202.113281 8.441406 205.039062 8.730469 C 207.964844 9.019531 210.878906 9.378906 213.789062 9.808594 C 216.695312 10.242188 219.589844 10.742188 222.472656 11.316406 C 225.359375 11.890625 228.226562 12.535156 231.078125 13.25 C 233.929688 13.960938 236.761719 14.746094 239.574219 15.601562 C 242.386719 16.453125 245.175781 17.375 247.945312 18.367188 C 250.714844 19.355469 253.453125 20.414062 256.171875 21.539062 C 258.886719 22.664062 261.574219 23.855469 264.230469 25.109375 C 266.886719 26.367188 269.511719 27.6875 272.105469 29.074219 C 274.699219 30.460938 277.253906 31.910156 279.777344 33.421875 C 282.296875 34.933594 284.78125 36.503906 287.226562 38.136719 C 289.671875 39.769531 292.074219 41.460938 294.433594 43.214844 C 296.796875 44.964844 299.113281 46.773438 301.382812 48.636719 C 303.65625 50.503906 305.882812 52.421875 308.058594 54.398438 C 310.238281 56.371094 312.367188 58.398438 314.445312 60.476562 C 316.523438 62.554688 318.550781 64.683594 320.523438 66.863281 C 322.5 69.039062 324.417969 71.265625 326.285156 73.539062 C 328.148438 75.808594 329.957031 78.125 331.707031 80.488281 C 333.457031 82.847656 335.152344 85.25 336.785156 87.695312 C 338.417969 90.140625 339.988281 92.621094 341.5 95.144531 C 343.011719 97.664062 344.460938 100.222656 345.847656 102.816406 C 347.230469 105.40625 348.554688 108.03125 349.808594 110.691406 C 351.066406 113.347656 352.257812 116.035156 353.382812 118.75 C 354.507812 121.464844 355.566406 124.207031 356.554688 126.976562 C 357.546875 129.746094 358.46875 132.535156 359.320312 135.347656 C 360.175781 138.160156 360.960938 140.992188 361.671875 143.84375 C 362.386719 146.695312 363.03125 149.5625 363.605469 152.445312 C 364.179688 155.332031 364.679688 158.226562 365.113281 161.132812 C 365.542969 164.042969 365.902344 166.957031 366.191406 169.882812 C 366.480469 172.808594 366.695312 175.738281 366.839844 178.675781 C 366.984375 181.613281 367.054688 184.550781 367.054688 187.488281 Z M 367.054688 187.488281 " clip-rule="nonzero"/></clipPath><linearGradient x1="1.279994" gradientTransform="matrix(0.733163, 0, 0, 0.733163, 6.882712, 6.58945)" y1="1.760003" x2="491.240014" gradientUnits="userSpaceOnUse" y2="491.719989" id="8252e92e6f"><stop stop-opacity="1" stop-color="rgb(90.99884%, 23.098755%, 54.899597%)" offset="0"/><stop stop-opacity="1" stop-color="rgb(90.99884%, 23.098755%, 54.899597%)" offset="0.125"/><stop stop-opacity="1" stop-color="rgb(90.986633%, 23.092651%, 54.88739%)" offset="0.140625"/><stop stop-opacity="1" stop-color="rgb(90.823364%, 23.010254%, 54.742432%)" offset="0.148438"/><stop stop-opacity="1" stop-color="rgb(90.519714%, 22.857666%, 54.475403%)" offset="0.15625"/><stop stop-opacity="1" stop-color="rgb(90.21759%, 22.703552%, 54.206848%)" offset="0.164063"/><stop stop-opacity="1" stop-color="rgb(89.91394%, 22.550964%, 53.939819%)" offset="0.171875"/><stop stop-opacity="1" stop-color="rgb(89.611816%, 22.398376%, 53.671265%)" offset="0.179688"/><stop stop-opacity="1" stop-color="rgb(89.309692%, 22.245789%, 53.40271%)" offset="0.1875"/><stop stop-opacity="1" stop-color="rgb(89.006042%, 22.091675%, 53.135681%)" offset="0.195313"/><stop stop-opacity="1" stop-color="rgb(88.703918%, 21.939087%, 52.867126%)" offset="0.203125"/><stop stop-opacity="1" stop-color="rgb(88.401794%, 21.786499%, 52.598572%)" offset="0.210938"/><stop stop-opacity="1" stop-color="rgb(88.098145%, 21.632385%, 52.331543%)" offset="0.21875"/><stop stop-opacity="1" stop-color="rgb(87.796021%, 21.479797%, 52.062988%)" offset="0.226563"/><stop stop-opacity="1" stop-color="rgb(87.492371%, 21.327209%, 51.794434%)" offset="0.234375"/><stop stop-opacity="1" stop-color="rgb(87.190247%, 21.174622%, 51.527405%)" offset="0.242188"/><stop stop-opacity="1" stop-color="rgb(86.888123%, 21.020508%, 51.25885%)" offset="0.25"/><stop stop-opacity="1" stop-color="rgb(86.584473%, 20.86792%, 50.990295%)" offset="0.257813"/><stop stop-opacity="1" stop-color="rgb(86.282349%, 20.715332%, 50.723267%)" offset="0.265625"/><stop stop-opacity="1" stop-color="rgb(85.978699%, 20.562744%, 50.454712%)" offset="0.273438"/><stop stop-opacity="1" stop-color="rgb(85.676575%, 20.40863%, 50.187683%)" offset="0.28125"/><stop stop-opacity="1" stop-color="rgb(85.374451%, 20.256042%, 49.919128%)" offset="0.289062"/><stop stop-opacity="1" stop-color="rgb(85.070801%, 20.103455%, 49.650574%)" offset="0.296875"/><stop stop-opacity="1" stop-color="rgb(84.768677%, 19.950867%, 49.383545%)" offset="0.304688"/><stop stop-opacity="1" stop-color="rgb(84.465027%, 19.796753%, 49.11499%)" offset="0.3125"/><stop stop-opacity="1" stop-color="rgb(84.162903%, 19.644165%, 48.846436%)" offset="0.320312"/><stop stop-opacity="1" stop-color="rgb(83.860779%, 19.491577%, 48.579407%)" offset="0.328125"/><stop stop-opacity="1" stop-color="rgb(83.557129%, 19.338989%, 48.310852%)" offset="0.335938"/><stop stop-opacity="1" stop-color="rgb(83.255005%, 19.184875%, 48.042297%)" offset="0.34375"/><stop stop-opacity="1" stop-color="rgb(82.951355%, 19.032288%, 47.775269%)" offset="0.351563"/><stop stop-opacity="1" stop-color="rgb(82.649231%, 18.8797%, 47.506714%)" offset="0.359375"/><stop stop-opacity="1" stop-color="rgb(82.347107%, 18.725586%, 47.239685%)" offset="0.367188"/><stop stop-opacity="1" stop-color="rgb(82.043457%, 18.572998%, 46.97113%)" offset="0.375"/><stop stop-opacity="1" stop-color="rgb(81.741333%, 18.42041%, 46.702576%)" offset="0.382812"/><stop stop-opacity="1" stop-color="rgb(81.437683%, 18.267822%, 46.435547%)" offset="0.390625"/><stop stop-opacity="1" stop-color="rgb(81.135559%, 18.113708%, 46.166992%)" offset="0.398437"/><stop stop-opacity="1" stop-color="rgb(80.833435%, 17.961121%, 45.898438%)" offset="0.40625"/><stop stop-opacity="1" stop-color="rgb(80.529785%, 17.808533%, 45.631409%)" offset="0.414063"/><stop stop-opacity="1" stop-color="rgb(80.227661%, 17.655945%, 45.362854%)" offset="0.421875"/><stop stop-opacity="1" stop-color="rgb(79.925537%, 17.501831%, 45.094299%)" offset="0.429688"/><stop stop-opacity="1" stop-color="rgb(79.621887%, 17.349243%, 44.827271%)" offset="0.4375"/><stop stop-opacity="1" stop-color="rgb(79.319763%, 17.196655%, 44.558716%)" offset="0.445313"/><stop stop-opacity="1" stop-color="rgb(79.016113%, 17.044067%, 44.291687%)" offset="0.453125"/><stop stop-opacity="1" stop-color="rgb(78.713989%, 16.889954%, 44.023132%)" offset="0.460938"/><stop stop-opacity="1" stop-color="rgb(78.411865%, 16.737366%, 43.754578%)" offset="0.46875"/><stop stop-opacity="1" stop-color="rgb(78.108215%, 16.584778%, 43.487549%)" offset="0.476562"/><stop stop-opacity="1" stop-color="rgb(77.806091%, 16.43219%, 43.218994%)" offset="0.484375"/><stop stop-opacity="1" stop-color="rgb(77.502441%, 16.278076%, 42.950439%)" offset="0.492188"/><stop stop-opacity="1" stop-color="rgb(77.200317%, 16.125488%, 42.683411%)" offset="0.5"/><stop stop-opacity="1" stop-color="rgb(77.049255%, 16.049194%, 42.549133%)" offset="0.5"/><stop stop-opacity="1" stop-color="rgb(76.898193%, 15.9729%, 42.414856%)" offset="0.5"/><stop stop-opacity="1" stop-color="rgb(76.747131%, 15.896606%, 42.280579%)" offset="0.507812"/><stop stop-opacity="1" stop-color="rgb(76.594543%, 15.820312%, 42.146301%)" offset="0.515625"/><stop stop-opacity="1" stop-color="rgb(76.292419%, 15.666199%, 41.879272%)" offset="0.523438"/><stop stop-opacity="1" stop-color="rgb(75.98877%, 15.513611%, 41.610718%)" offset="0.53125"/><stop stop-opacity="1" stop-color="rgb(75.686646%, 15.361023%, 41.343689%)" offset="0.539063"/><stop stop-opacity="1" stop-color="rgb(75.384521%, 15.206909%, 41.075134%)" offset="0.546875"/><stop stop-opacity="1" stop-color="rgb(75.080872%, 15.054321%, 40.80658%)" offset="0.554688"/><stop stop-opacity="1" stop-color="rgb(74.778748%, 14.901733%, 40.539551%)" offset="0.5625"/><stop stop-opacity="1" stop-color="rgb(74.475098%, 14.749146%, 40.270996%)" offset="0.570313"/><stop stop-opacity="1" stop-color="rgb(74.172974%, 14.595032%, 40.002441%)" offset="0.578125"/><stop stop-opacity="1" stop-color="rgb(73.87085%, 14.442444%, 39.735413%)" offset="0.585938"/><stop stop-opacity="1" stop-color="rgb(73.5672%, 14.289856%, 39.466858%)" offset="0.59375"/><stop stop-opacity="1" stop-color="rgb(73.265076%, 14.137268%, 39.198303%)" offset="0.601562"/><stop stop-opacity="1" stop-color="rgb(72.961426%, 13.983154%, 38.931274%)" offset="0.609375"/><stop stop-opacity="1" stop-color="rgb(72.659302%, 13.830566%, 38.66272%)" offset="0.617188"/><stop stop-opacity="1" stop-color="rgb(72.357178%, 13.677979%, 38.394165%)" offset="0.625"/><stop stop-opacity="1" stop-color="rgb(72.053528%, 13.525391%, 38.127136%)" offset="0.632812"/><stop stop-opacity="1" stop-color="rgb(71.751404%, 13.371277%, 37.858582%)" offset="0.640625"/><stop stop-opacity="1" stop-color="rgb(71.44928%, 13.218689%, 37.591553%)" offset="0.648438"/><stop stop-opacity="1" stop-color="rgb(71.14563%, 13.066101%, 37.322998%)" offset="0.65625"/><stop stop-opacity="1" stop-color="rgb(70.843506%, 12.913513%, 37.054443%)" offset="0.664062"/><stop stop-opacity="1" stop-color="rgb(70.539856%, 12.759399%, 36.787415%)" offset="0.671875"/><stop stop-opacity="1" stop-color="rgb(70.237732%, 12.606812%, 36.51886%)" offset="0.679688"/><stop stop-opacity="1" stop-color="rgb(69.935608%, 12.454224%, 36.250305%)" offset="0.6875"/><stop stop-opacity="1" stop-color="rgb(69.631958%, 12.30011%, 35.983276%)" offset="0.695312"/><stop stop-opacity="1" stop-color="rgb(69.329834%, 12.147522%, 35.714722%)" offset="0.703125"/><stop stop-opacity="1" stop-color="rgb(69.026184%, 11.994934%, 35.446167%)" offset="0.710938"/><stop stop-opacity="1" stop-color="rgb(68.72406%, 11.842346%, 35.179138%)" offset="0.71875"/><stop stop-opacity="1" stop-color="rgb(68.421936%, 11.688232%, 34.910583%)" offset="0.726563"/><stop stop-opacity="1" stop-color="rgb(68.118286%, 11.535645%, 34.643555%)" offset="0.734375"/><stop stop-opacity="1" stop-color="rgb(67.816162%, 11.383057%, 34.375%)" offset="0.742188"/><stop stop-opacity="1" stop-color="rgb(67.512512%, 11.230469%, 34.106445%)" offset="0.75"/><stop stop-opacity="1" stop-color="rgb(67.210388%, 11.076355%, 33.839417%)" offset="0.757812"/><stop stop-opacity="1" stop-color="rgb(66.908264%, 10.923767%, 33.570862%)" offset="0.765625"/><stop stop-opacity="1" stop-color="rgb(66.604614%, 10.771179%, 33.302307%)" offset="0.773438"/><stop stop-opacity="1" stop-color="rgb(66.30249%, 10.618591%, 33.035278%)" offset="0.78125"/><stop stop-opacity="1" stop-color="rgb(65.99884%, 10.464478%, 32.766724%)" offset="0.789062"/><stop stop-opacity="1" stop-color="rgb(65.696716%, 10.31189%, 32.498169%)" offset="0.796875"/><stop stop-opacity="1" stop-color="rgb(65.394592%, 10.159302%, 32.23114%)" offset="0.804688"/><stop stop-opacity="1" stop-color="rgb(65.090942%, 10.006714%, 31.962585%)" offset="0.8125"/><stop stop-opacity="1" stop-color="rgb(64.788818%, 9.8526%, 31.695557%)" offset="0.820312"/><stop stop-opacity="1" stop-color="rgb(64.485168%, 9.700012%, 31.427002%)" offset="0.828125"/><stop stop-opacity="1" stop-color="rgb(64.183044%, 9.547424%, 31.158447%)" offset="0.835938"/><stop stop-opacity="1" stop-color="rgb(63.88092%, 9.393311%, 30.891418%)" offset="0.84375"/><stop stop-opacity="1" stop-color="rgb(63.577271%, 9.240723%, 30.622864%)" offset="0.851563"/><stop stop-opacity="1" stop-color="rgb(63.275146%, 9.088135%, 30.354309%)" offset="0.859375"/><stop stop-opacity="1" stop-color="rgb(63.111877%, 9.005737%, 30.209351%)" offset="0.875"/><stop stop-opacity="1" stop-color="rgb(63.09967%, 8.999634%, 30.198669%)" offset="1"/></linearGradient></defs><g clip-path="url(#74438afcca)"><g clip-path="url(#bb4cd9137a)"><path fill="url(#8252e92e6f)" d="M 7.835938 7.863281 L 7.835938 367.085938 L 367.054688 367.085938 L 367.054688 7.863281 Z M 7.835938 7.863281 " fill-rule="nonzero"/></g></g><path fill="#ffffff" d="M 85.050781 277.03125 L 79.421875 282.660156 L 92.238281 295.507812 L 97.898438 289.875 Z M 85.050781 277.03125 " fill-opacity="1" fill-rule="evenodd"/><path fill="#ffffff" d="M 102.789062 264.792969 C 104.421875 266.429688 103.242188 269.222656 100.953125 269.222656 C 100.289062 269.222656 99.628906 268.972656 99.113281 268.460938 L 92.179688 261.523438 L 84.53125 269.179688 L 105.714844 290.359375 L 149.585938 246.488281 L 128.398438 225.308594 L 120.726562 232.984375 L 127.6875 239.898438 C 129.328125 241.53125 128.148438 244.324219 125.859375 244.324219 C 125.199219 244.324219 124.535156 244.074219 124.027344 243.570312 L 117.0625 236.648438 L 108.300781 245.410156 L 115.246094 252.347656 C 116.871094 253.972656 115.707031 256.773438 113.410156 256.773438 C 112.75 256.773438 112.085938 256.515625 111.578125 256.011719 L 104.644531 249.070312 L 95.859375 257.851562 Z M 102.789062 264.792969 " fill-opacity="1" fill-rule="evenodd"/><path fill="#ffffff" d="M 136.734375 266.671875 L 125.890625 277.507812 L 133.550781 285.167969 L 144.394531 274.363281 Z M 136.734375 266.671875 " fill-opacity="1" fill-rule="evenodd"/><path fill="#ffffff" d="M 136.226562 225.816406 L 144.0625 217.984375 L 156.957031 230.882812 L 149.125 238.714844 Z M 136.226562 225.816406 " fill-opacity="1" fill-rule="evenodd"/><path fill="#ffffff" d="M 149.746094 204 L 143.589844 210.160156 L 164.769531 231.339844 L 170.933594 225.183594 Z M 149.746094 204 " fill-opacity="1" fill-rule="evenodd"/><path fill="#ffffff" d="M 281.980469 81.796875 L 158.40625 205.320312 L 169.609375 216.523438 L 293.132812 92.949219 C 296.210938 89.90625 296.203125 84.90625 293.117188 81.789062 C 290.050781 78.679688 285.074219 78.710938 281.980469 81.796875 Z M 281.980469 81.796875 " fill-opacity="1" fill-rule="evenodd"/></svg>